<?xml version="1.0" encoding="UTF-8" standalone="no"?>
<!-- Created with Inkscape (http://www.inkscape.org/) -->

<svg
   xmlns:dc="http://purl.org/dc/elements/1.1/"
   xmlns:cc="http://creativecommons.org/ns#"
   xmlns:rdf="http://www.w3.org/1999/02/22-rdf-syntax-ns#"
   xmlns:svg="http://www.w3.org/2000/svg"
   xmlns="http://www.w3.org/2000/svg"
   xmlns:sodipodi="http://sodipodi.sourceforge.net/DTD/sodipodi-0.dtd"
   xmlns:inkscape="http://www.inkscape.org/namespaces/inkscape"
   width="843.21429"
   height="256.00003"
   viewBox="0 0 223.10044 67.733339"
   version="1.1"
   id="svg8"
   inkscape:version="0.92.5 (2060ec1f9f, 2020-04-08)"
   sodipodi:docname="wordmark.svg">
  <defs
     id="defs2" />
  <sodipodi:namedview
     id="base"
     pagecolor="#ffffff"
     bordercolor="#666666"
     borderopacity="1.0"
     inkscape:pageopacity="0.0"
     inkscape:pageshadow="2"
     inkscape:zoom="0.98994949"
     inkscape:cx="303.79635"
     inkscape:cy="185.57885"
     inkscape:document-units="mm"
     inkscape:current-layer="g878"
     showgrid="false"
     inkscape:pagecheckerboard="true"
     inkscape:showpageshadow="false"
     units="px"
     fit-margin-top="0"
     fit-margin-left="0"
     fit-margin-right="0"
     fit-margin-bottom="0" />
  <metadata
     id="metadata5">
    <rdf:RDF>
      <cc:Work
         rdf:about="">
        <dc:format>image/svg+xml</dc:format>
        <dc:type
           rdf:resource="http://purl.org/dc/dcmitype/StillImage" />
        <dc:title />
      </cc:Work>
    </rdf:RDF>
  </metadata>
  <g
     inkscape:label="Layer 1"
     inkscape:groupmode="layer"
     id="layer1"
     transform="translate(0,-306.9408)">
    <g
       id="g878"
       inkscape:export-xdpi="384"
       inkscape:export-ydpi="384">
      <rect
         ry="4.2333331"
         y="306.9408"
         x="0"
         height="67.733337"
         width="223.10045"
         id="rect815-7"
         style="display:inline;opacity:1;fill:#ffffff;fill-opacity:1;stroke:none;stroke-width:2.09744239;stroke-linecap:round;stroke-linejoin:round;stroke-miterlimit:4;stroke-dasharray:none;stroke-opacity:1" />
      <g
         aria-label="Herald"
         id="text819-9">
        <path
           d="m 52.772532,356.00285 q 0,2.33254 0.24553,3.80573 0.245531,1.4118 0.92074,2.20977 0.736593,0.73659 2.025629,1.04351 1.350419,0.30691 3.498813,0.36829 v 2.33255 H 39.575256 v -2.33255 q 2.148393,-0.0614 3.43743,-0.36829 1.350419,-0.30692 2.087011,-1.04351 0.736592,-0.73659 0.982123,-2.08701 0.24553,-1.35042 0.24553,-3.49881 V 343.11249 H 21.467365 v 12.89036 q 0,2.33254 0.245531,3.80573 0.245531,1.4118 0.92074,2.20977 0.736592,0.73659 2.025629,1.04351 1.350419,0.30691 3.498812,0.36829 v 2.33255 H 8.2700893 v -2.33255 q 2.1483937,-0.0614 3.4374297,-0.36829 1.350419,-0.30692 2.087011,-1.04351 0.736593,-0.73659 0.982123,-2.08701 0.245531,-1.35042 0.245531,-3.49881 V 327.8282 q 0,-2.14839 -0.245531,-3.43743 -0.184148,-1.35042 -0.859357,-2.08701 -0.613827,-0.79798 -1.841481,-1.04351 -1.227653,-0.30691 -3.1918989,-0.42968 v -2.33254 H 27.544251 v 2.33254 q -1.964246,0.0614 -3.1919,0.3683 -1.166271,0.30691 -1.84148,1.10489 -0.613827,0.79797 -0.859358,2.20978 -0.184148,1.4118 -0.184148,3.74434 v 11.78547 H 46.32735 V 327.8282 q 0,-2.14839 -0.24553,-3.43743 -0.184148,-1.35042 -0.859358,-2.08701 -0.613827,-0.79798 -1.84148,-1.04351 -1.227654,-0.30691 -3.1919,-0.42968 v -2.33254 h 18.660335 v 2.33254 q -1.964246,0.0614 -3.1919,0.3683 -1.16627,0.30691 -1.84148,1.10489 -0.613827,0.79797 -0.859357,2.20978 -0.184148,1.4118 -0.184148,3.74434 z"
           id="path1928"
           inkscape:connector-curvature="0" />
        <path
           d="m 90.588556,360.05411 q -5.217528,6.32241 -12.951745,6.32241 -3.621578,0 -6.567947,-1.16627 -2.946368,-1.22765 -5.094762,-3.37605 -2.087011,-2.20977 -3.253282,-5.21752 -1.166271,-3.06914 -1.166271,-6.7521 0,-3.74434 1.227654,-6.93624 1.227653,-3.1919 3.43743,-5.46306 2.271159,-2.27116 5.340293,-3.5602 3.130516,-1.28903 6.813477,-1.28903 5.95412,0 9.207402,3.25328 3.253282,3.1919 3.253282,9.2074 0,0.85936 -0.368296,1.04351 -0.306914,0.18415 -1.534567,0.18415 H 68.736322 q -0.122765,0.49106 -0.184148,1.22765 -0.06138,0.67521 -0.06138,1.53457 0,3.1919 0.736592,5.83135 0.797975,2.57807 2.209776,4.41955 1.473185,1.84148 3.43743,2.88499 2.025629,0.98212 4.480936,0.98212 2.578072,0 4.787849,-1.10489 2.209776,-1.16627 4.542318,-3.74434 z M 80.460414,343.48078 q 1.227654,0 1.964246,-0.0614 0.736592,-0.0614 1.104888,-0.24553 0.368296,-0.18415 0.491062,-0.49106 0.122765,-0.3683 0.122765,-0.92074 0,-2.82361 -1.84148,-4.48094 -1.780098,-1.71871 -4.910615,-1.71871 -6.629329,0 -8.225279,7.91836 z"
           id="path1930"
           inkscape:connector-curvature="0" />
        <path
           d="m 106.46602,356.00285 q 0,2.51669 0.12277,3.98987 0.12276,1.47319 0.61383,2.27116 0.55244,0.73659 1.53456,0.98213 0.98213,0.24553 2.76222,0.36829 v 2.1484 H 95.17161 v -2.1484 q 1.780098,-0.0614 2.823603,-0.30691 1.043506,-0.30692 1.59595,-1.04351 0.552447,-0.73659 0.675207,-2.08701 0.18415,-1.4118 0.18415,-3.74434 v -7.18178 q 0,-4.17402 -0.12276,-6.50656 -0.0614,-2.33254 -0.613832,-3.43743 -0.491061,-1.10489 -1.595949,-1.28904 -1.104888,-0.24553 -3.069134,-0.24553 v -2.14839 l 10.741965,-2.33254 0.85936,7.61145 h 0.24553 q 0.79798,-1.84148 1.96425,-3.37605 1.22765,-1.53456 2.63945,-2.57807 1.4118,-1.10489 2.94637,-1.71871 1.53457,-0.61383 3.13052,-0.61383 1.96424,0 3.06913,0.98212 1.16627,0.92074 1.16627,2.51669 0,1.47319 -0.92074,2.33254 -0.92074,0.79798 -2.63945,0.79798 -0.98213,0 -1.65733,-0.24553 -0.67521,-0.24553 -1.22766,-0.49106 -0.49106,-0.30692 -0.98212,-0.55245 -0.42968,-0.24553 -0.98212,-0.24553 -1.65734,0 -3.31467,2.14839 -1.65733,2.08702 -2.57807,5.3403 -0.49106,1.7801 -0.79798,4.05125 -0.24553,2.20978 -0.24553,4.66509 z"
           id="path1932"
           inkscape:connector-curvature="0" />
        <path
           d="m 143.46112,347.59342 q -3.49882,1.35042 -5.95412,2.63946 -2.39393,1.28903 -3.86711,2.57807 -1.47319,1.28904 -2.1484,2.57807 -0.61382,1.28904 -0.61382,2.63946 0,2.02563 1.35042,3.31466 1.35042,1.28904 3.56019,1.28904 1.59595,0 2.94637,-0.79798 1.4118,-0.79797 2.45531,-2.14839 1.0435,-1.4118 1.65733,-3.25328 0.61383,-1.90286 0.61383,-3.98988 z m 0,-2.63945 v -2.51669 q 0,-7.48869 -6.3838,-7.48869 -1.04351,0 -1.7801,0.18415 -0.73659,0.18415 -1.22765,0.61383 -0.49106,0.42967 -0.92074,1.22765 -0.3683,0.79797 -0.7366,1.96424 -0.6752,1.7801 -1.35041,2.39393 -0.61383,0.55244 -1.84148,0.55244 -3.06914,0 -3.06914,-3.06913 0,-2.94637 3.13052,-4.54232 3.13051,-1.65733 8.90049,-1.65733 6.13826,0 8.71634,2.20978 2.57807,2.14839 2.57807,7.36592 v 13.74972 q 0,6.99762 2.76222,6.99762 0.85936,0 1.65733,-0.18415 0.79798,-0.24553 1.35042,-1.16627 l 0.85936,1.47319 q -0.73659,1.4118 -2.70084,2.39392 -1.96424,0.92074 -4.11264,0.92074 -2.70084,0 -4.05126,-1.71871 -1.28903,-1.71872 -1.28903,-4.84923 h -0.30692 q -1.59594,3.00775 -4.41955,4.78784 -2.8236,1.71872 -6.26103,1.71872 -3.86711,0 -6.07689,-1.96425 -2.20977,-1.96424 -2.20977,-5.27891 0,-1.47318 0.49106,-2.8236 0.55244,-1.35042 1.71871,-2.57807 1.16627,-1.22766 3.06914,-2.39393 1.90286,-1.22765 4.66508,-2.4553 z"
           id="path1934"
           inkscape:connector-curvature="0" />
        <path
           d="m 168.87349,356.187 q 0,2.33254 0.18414,3.74434 0.18415,1.4118 0.7366,2.20978 0.61382,0.79797 1.65733,1.10489 1.10489,0.30691 2.88498,0.36829 v 2.1484 h -16.94162 v -2.1484 q 1.84148,-0.0614 2.94637,-0.36829 1.10489,-0.3683 1.71872,-1.10489 0.67521,-0.73659 0.85936,-2.02563 0.24553,-1.35042 0.24553,-3.49881 v -26.45594 q 0,-3.31466 -0.12277,-5.52444 -0.0614,-2.27116 -0.24553,-3.06913 -0.30691,-1.41181 -1.47318,-1.90287 -1.10489,-0.49106 -4.05126,-0.49106 v -2.08701 l 11.60133,-2.27116 z"
           id="path1936"
           inkscape:connector-curvature="0" />
        <path
           d="m 204.65303,360.60655 h -0.24553 q -2.20978,3.13052 -4.72647,4.48094 -2.45531,1.28903 -5.83135,1.28903 -3.49882,0 -6.44518,-1.22765 -2.88499,-1.28904 -5.03338,-3.49881 -2.08701,-2.27116 -3.31467,-5.40168 -1.16627,-3.13052 -1.16627,-6.81348 0,-3.62158 1.16627,-6.69071 1.22766,-3.13052 3.31467,-5.34029 2.14839,-2.27116 5.09476,-3.49882 2.94637,-1.28903 6.3838,-1.28903 2.94637,0 5.21753,0.98212 2.33254,0.98212 4.48093,3.13052 v -6.26104 q 0,-3.49881 -0.12276,-5.83135 -0.0614,-2.33254 -0.24554,-3.1919 -0.30691,-1.35042 -1.71871,-1.90286 -1.4118,-0.55245 -4.6037,-0.55245 v -1.84148 l 12.58345,-2.33254 v 35.41781 q 0,4.2354 0.0614,6.99762 0.0614,2.70084 0.3683,3.86711 0.18414,0.73659 0.42968,1.22766 0.30691,0.49106 0.79797,0.79797 0.55244,0.24553 1.4118,0.3683 0.92074,0.12276 2.33254,0.12276 v 2.08701 l -10.18952,0.67521 z m -1.22765,-13.56557 q 0,-3.1919 -0.3683,-4.84923 -0.30691,-1.65734 -1.28904,-2.88499 -1.4118,-1.84148 -3.62157,-2.76222 -2.1484,-0.98212 -4.29679,-0.98212 -4.41956,0 -6.7521,3.68296 -2.27116,3.62158 -2.27116,9.88261 0,3.25328 0.55245,5.89274 0.61382,2.63945 1.71871,4.54231 1.16627,1.84149 2.82361,2.88499 1.71871,0.98212 3.92849,0.98212 1.10489,0 2.20977,-0.24553 1.16627,-0.24553 2.20978,-0.73659 1.10489,-0.55244 2.02563,-1.22765 0.92074,-0.7366 1.53457,-1.65734 0.85935,-1.35041 1.22765,-3.25328 0.3683,-1.90286 0.3683,-5.21752 z"
           id="path1938"
           inkscape:connector-curvature="0" />
      </g>
    </g>
  </g>
</svg>
